<svg width="925" height="354" viewBox="0 0 925 354" fill="none" xmlns="http://www.w3.org/2000/svg">
<path d="M0 0.0121171C0 0.0121171 58.9289 17.5549 98.9236 21.2154C169.288 27.6553 207.208 -0.091642 278.142 0.0121171C348.21 0.114609 385.053 21.9926 455.113 21.2154C519.242 20.5039 552.535 -0.57694 616.667 0.0121171C676.609 0.562691 707.355 20.8507 767.3 21.2154C829.955 21.5965 925 0.0121171 925 0.0121171V319.905C925 319.905 835.224 352.229 773.403 352.631C709.657 353.046 680.413 320.271 616.667 319.905C551.112 319.527 520.652 351.553 455.113 352.631C383.762 353.805 349.511 320.06 278.142 319.905C205.923 319.747 169.94 362.052 98.9236 352.631C57.0923 347.082 0 319.905 0 319.905V0.0121171Z" fill="#4806EE" fill-opacity="0.96"/>
</svg>
