<svg width="602" height="606" viewBox="0 0 602 606" fill="none" xmlns="http://www.w3.org/2000/svg">
<path d="M520.532 266.97C520.532 320.666 510.354 382.55 486.819 430.95C463.288 479.34 426.577 513.97 373.532 513.97C320.032 513.97 246.802 490.512 186.933 453.579C157.015 435.122 130.508 413.344 111.497 389.53C92.4838 365.715 81.0317 339.949 81.0317 313.47C81.0317 260.024 103.699 204.612 139.784 162.561C175.87 120.509 225.234 91.9697 278.532 91.9697C332.097 91.9697 392.688 109.091 439.853 139.593C487.025 170.101 520.532 213.819 520.532 266.97Z" stroke="#A3EBFF" stroke-width="3"/>
<path d="M396.692 102.004C440.775 132.661 485.77 176.349 512.069 223.305C538.362 270.252 545.832 320.163 515.546 363.712C485.001 407.635 423.932 454.363 359.429 482.427C327.194 496.452 294.181 505.78 263.775 507.792C233.368 509.804 205.675 504.495 183.937 489.377C140.059 458.862 107.508 408.615 93.5868 354.981C79.6655 301.346 84.4195 244.524 114.85 200.767C145.433 156.791 194.083 116.821 246.054 95.5148C298.033 74.2051 353.055 71.6574 396.692 102.004Z" stroke="#FFB20D" stroke-width="3"/>
<path d="M396.692 102.004C440.775 132.661 485.77 176.349 512.069 223.305C538.362 270.252 545.832 320.163 515.546 363.712C485.001 407.635 423.932 454.363 359.429 482.427C327.194 496.452 294.181 505.78 263.775 507.792C233.368 509.804 205.675 504.495 183.937 489.377C140.059 458.862 107.508 408.615 93.5868 354.981C79.6655 301.346 84.4195 244.524 114.85 200.767C145.433 156.791 194.083 116.821 246.054 95.5148C298.033 74.2051 353.055 71.6574 396.692 102.004Z" stroke="#FFB20D" stroke-width="3"/>
<path d="M242.031 88.1802C295.434 82.573 358.042 86.2331 408.635 104.585C459.218 122.934 497.492 155.829 503.031 208.583C508.618 261.791 492.936 337.07 462.456 400.468C447.224 432.15 428.334 460.786 406.635 482.18C384.935 503.576 360.506 517.657 334.172 520.422C281.019 526.003 223.542 509.246 177.953 477.749C132.362 446.252 98.8244 400.138 93.2587 347.132C87.6651 293.859 98.3654 231.812 123.776 181.719C149.191 131.619 189.171 93.7306 242.031 88.1802Z" stroke="#FF1CC1" stroke-width="3"/>
</svg>
