<svg width="364" height="347" viewBox="0 0 364 347" fill="none" xmlns="http://www.w3.org/2000/svg">
<path d="M251.08 19.9133C286.423 44.4916 322.483 79.5099 343.553 117.13C364.618 154.741 370.565 194.652 346.359 229.459C321.892 264.64 272.95 302.097 221.237 324.597C195.397 335.839 168.947 343.31 144.597 344.921C120.245 346.533 98.1023 342.278 80.7343 330.2C45.5981 305.765 19.5209 265.518 8.36799 222.549C-2.785 179.579 1.03197 134.088 25.3829 99.0731C49.8864 63.8384 88.8717 31.8098 130.512 14.7386C172.16 -2.33585 216.186 -4.35353 251.08 19.9133Z" stroke="#FFB20D" stroke-width="3"/>
<path d="M251.08 19.9133C286.423 44.4916 322.483 79.5099 343.553 117.13C364.618 154.741 370.565 194.652 346.359 229.459C321.892 264.64 272.95 302.097 221.237 324.597C195.397 335.839 168.947 343.31 144.597 344.921C120.245 346.533 98.1023 342.278 80.7343 330.2C45.5981 305.765 19.5209 265.518 8.36799 222.549C-2.785 179.579 1.03197 134.088 25.3829 99.0731C49.8864 63.8384 88.8717 31.8098 130.512 14.7386C172.16 -2.33585 216.186 -4.35353 251.08 19.9133Z" stroke="#FFB20D" stroke-width="3"/>
</svg>
