<svg width="1440" height="114" viewBox="0 0 1440 114" fill="none" xmlns="http://www.w3.org/2000/svg">
<path d="M-367.738 0H1616.76C1616.76 0 1700.83 32.9785 1642.26 62.959C1583.69 92.9395 1507.2 113.926 1447.25 113.926C1338.77 113.926 1270.85 62.959 1164.05 62.959C1079.54 62.959 1021.83 112.214 930.456 113.926C839.081 115.637 766.211 62.1051 674.813 62.959C587.002 63.7793 553.539 113.926 459.137 113.926C330.77 113.926 282.895 60.5316 154.572 62.959C39.8736 65.1286 -18.7626 116.208 -133.456 113.926C-236.697 111.872 -272.647 103.433 -367.738 62.959C-462.828 22.4853 -367.738 0 -367.738 0Z" fill="#4606E7"/>
</svg>
