<svg width="1440" height="649" viewBox="0 0 1440 649" fill="none" xmlns="http://www.w3.org/2000/svg">
<path d="M0 0.0222146C0 0.0222146 91.738 32.184 154 38.8948C263.54 50.7014 322.573 -0.16801 433 0.0222146C542.079 0.210117 599.434 40.3198 708.5 38.8948C808.334 37.5904 860.162 -1.05772 960 0.0222146C1053.32 1.0316 1101.18 38.2263 1194.5 38.8948C1292.04 39.5936 1440 0.0222146 1440 0.0222146V586.492C1440 586.492 1300.24 645.753 1204 646.491C1104.76 647.251 1059.24 587.164 960 586.492C857.948 585.8 810.529 644.514 708.5 646.491C597.424 648.643 544.104 586.777 433 586.492C320.572 586.203 264.556 663.762 154 646.491C88.8788 636.317 0 586.492 0 586.492V0.0222146Z" fill="#FF1CC1" fill-opacity="0.96"/>
</svg>
