<svg width="257" height="291" viewBox="0 0 257 291" fill="none" xmlns="http://www.w3.org/2000/svg">
<path d="M256.055 0.766113L232.814 261.126L128.344 290.088L24.1621 261.166L0.945068 0.766113H256.055Z" fill="#E44D26"/>
<path d="M128.5 267.95L212.917 244.547L232.777 22.0571H128.5V267.95Z" fill="#F16529"/>
<path d="M83.32 85.9321H128.5V53.9951H48.417L49.181 62.5631L57.031 150.573H128.5V118.636H86.239L83.32 85.9321ZM90.518 166.542H58.458L62.932 216.688L128.353 234.848L128.5 234.808V201.58L128.36 201.617L92.792 192.013L90.518 166.542Z" fill="#EBEBEB"/>
<path d="M128.39 150.573H167.717L164.009 191.993L128.389 201.607V234.833L193.862 216.688L194.342 211.292L201.848 127.212L202.627 118.636H128.39V150.573ZM128.39 85.8541V85.9321H205.533L206.173 78.7541L207.629 62.5631L208.392 53.9951H128.39V85.8541Z" fill="white"/>
</svg>
