<svg width="1440" height="288" viewBox="0 0 1440 288" fill="none" xmlns="http://www.w3.org/2000/svg">
<path d="M-374.5 287.5H1598.5C1598.5 287.5 1672.83 130.061 1614.26 81.9344C1555.69 33.8078 1479.2 0.119263 1419.25 0.119263C1310.77 0.119263 1242.85 81.9344 1136.05 81.9344C1051.54 81.9344 993.83 2.86639 902.456 0.119263C811.081 -2.62786 738.211 83.305 646.813 81.9344C559.001 80.6175 525.539 0.119263 431.137 0.119263C302.77 0.119263 254.895 85.831 126.572 81.9344C11.8736 78.4515 -46.7626 -3.54365 -161.456 0.119263C-264.697 3.4164 -300.647 16.9635 -395.737 81.9344C-490.828 146.905 -374.5 287.5 -374.5 287.5Z" fill="#4606E7"/>
</svg>
