<svg width="18" height="18" viewBox="0 0 18 18" fill="none" xmlns="http://www.w3.org/2000/svg">
<g clip-path="url(#clip0_27_38)">
<path d="M7.4085 9.4095C7.83117 9.83049 8.40343 10.0669 9 10.0669C9.59656 10.0669 10.1688 9.83049 10.5915 9.4095L17.8357 2.1645C17.669 1.74748 17.3812 1.38992 17.0095 1.13783C16.6378 0.885746 16.1991 0.750674 15.75 0.75H2.25C1.80087 0.750674 1.36221 0.885746 0.9905 1.13783C0.618787 1.38992 0.331022 1.74748 0.164246 2.1645L7.4085 9.4095Z" fill="#A3EBFF"/>
<path d="M11.652 10.47C10.948 11.1722 9.99431 11.5665 9 11.5665C8.00569 11.5665 7.05197 11.1722 6.348 10.47L0 4.125V17.25H18V4.125L11.652 10.47Z" fill="#A3EBFF"/>
</g>
<defs>
<clipPath id="clip0_27_38">
<rect width="18" height="18" fill="white"/>
</clipPath>
</defs>
</svg>
