<svg width="16" height="16" viewBox="0 0 16 16" fill="none" xmlns="http://www.w3.org/2000/svg">
<g clip-path="url(#clip0_27_46)">
<path d="M7.99999 0.0279541C6.23595 0.0298948 4.54471 0.731471 3.29728 1.97877C2.04986 3.22608 1.34811 4.91725 1.34599 6.68129C1.34599 8.39462 2.67266 11.076 5.28933 14.6506C5.60083 15.0774 6.0087 15.4245 6.47973 15.6639C6.95076 15.9032 7.47164 16.028 7.99999 16.028C8.52834 16.028 9.04923 15.9032 9.52026 15.6639C9.99129 15.4245 10.3992 15.0774 10.7107 14.6506C13.3273 11.076 14.654 8.39462 14.654 6.68129C14.6519 4.91725 13.9501 3.22608 12.7027 1.97877C11.4553 0.731471 9.76403 0.0298948 7.99999 0.0279541ZM7.99999 9.33329C7.47258 9.33329 6.957 9.17689 6.51847 8.88387C6.07994 8.59086 5.73815 8.17438 5.53631 7.68711C5.33448 7.19984 5.28167 6.66366 5.38457 6.14638C5.48746 5.6291 5.74143 5.15394 6.11437 4.781C6.48731 4.40806 6.96247 4.15409 7.47975 4.05119C7.99704 3.9483 8.53321 4.00111 9.02048 4.20294C9.50775 4.40478 9.92423 4.74657 10.2172 5.1851C10.5103 5.62363 10.6667 6.1392 10.6667 6.66662C10.6667 7.37387 10.3857 8.05214 9.88561 8.55224C9.38551 9.05234 8.70724 9.33329 7.99999 9.33329Z" fill="black"/>
</g>
<defs>
<clipPath id="clip0_27_46">
<rect width="16" height="16" fill="white"/>
</clipPath>
</defs>
</svg>
