<svg width="18" height="18" viewBox="0 0 18 18" fill="none" xmlns="http://www.w3.org/2000/svg">
<g clip-path="url(#clip0_27_41)">
<path d="M17.25 8.24998C17.0511 8.24998 16.8603 8.17096 16.7197 8.03031C16.579 7.88966 16.5 7.69889 16.5 7.49998C16.4984 5.90917 15.8658 4.38397 14.7409 3.25909C13.616 2.13422 12.0908 1.50157 10.5 1.49998C10.3011 1.49998 10.1103 1.42096 9.96966 1.28031C9.82901 1.13965 9.74999 0.948889 9.74999 0.749977C9.74999 0.551065 9.82901 0.360299 9.96966 0.219647C10.1103 0.0789946 10.3011 -2.30243e-05 10.5 -2.30243e-05C12.4884 0.00216067 14.3948 0.793038 15.8009 2.19909C17.2069 3.60514 17.9978 5.51152 18 7.49998C18 7.69889 17.921 7.88966 17.7803 8.03031C17.6397 8.17096 17.4489 8.24998 17.25 8.24998ZM15 7.49998C15 6.3065 14.5259 5.16191 13.682 4.318C12.8381 3.47408 11.6935 2.99998 10.5 2.99998C10.3011 2.99998 10.1103 3.07899 9.96966 3.21965C9.82901 3.3603 9.74999 3.55106 9.74999 3.74998C9.74999 3.94889 9.82901 4.13965 9.96966 4.28031C10.1103 4.42096 10.3011 4.49998 10.5 4.49998C11.2956 4.49998 12.0587 4.81605 12.6213 5.37866C13.1839 5.94127 13.5 6.70433 13.5 7.49998C13.5 7.69889 13.579 7.88966 13.7197 8.03031C13.8603 8.17096 14.0511 8.24998 14.25 8.24998C14.4489 8.24998 14.6397 8.17096 14.7803 8.03031C14.921 7.88966 15 7.69889 15 7.49998ZM16.6372 16.623L17.3197 15.8362C17.7541 15.4004 17.9981 14.8102 17.9981 14.1949C17.9981 13.5795 17.7541 12.9893 17.3197 12.5535C17.2965 12.5302 15.492 11.142 15.492 11.142C15.0589 10.7297 14.4836 10.5002 13.8857 10.501C13.2878 10.5018 12.7132 10.733 12.2812 11.1465L10.8517 12.351C9.68488 11.868 8.62491 11.1594 7.73271 10.2656C6.84051 9.37187 6.13365 8.31068 5.65274 7.14298L6.85274 5.71798C7.26653 5.28611 7.49797 4.71138 7.49894 4.11328C7.49992 3.51517 7.27036 2.9397 6.85799 2.50648C6.85799 2.50648 5.46824 0.704227 5.44499 0.680977C5.01708 0.250288 4.4369 0.00524349 3.82981 -0.00121194C3.22272 -0.00766736 2.63747 0.224985 2.20049 0.646477L1.33799 1.39648C-3.75751 7.30798 7.21499 18.1957 13.3215 18C13.9381 18.0036 14.5492 17.8835 15.1187 17.647C15.6882 17.4105 16.2045 17.0623 16.6372 16.623Z" fill="#A3EBFF"/>
</g>
<defs>
<clipPath id="clip0_27_41">
<rect width="18" height="18" fill="white"/>
</clipPath>
</defs>
</svg>
