<svg width="18" height="18" viewBox="0 0 18 18" fill="none" xmlns="http://www.w3.org/2000/svg">
<g clip-path="url(#clip0_27_48)">
<path d="M4.14075 14.925H8.13225L10.7715 17.5612C10.9133 17.7039 11.082 17.817 11.2677 17.8943C11.4534 17.9715 11.6526 18.0112 11.8537 18.0112C11.9861 18.011 12.1179 17.9941 12.246 17.961C12.5049 17.8956 12.7421 17.7632 12.9335 17.577C13.1249 17.3908 13.2639 17.1575 13.3365 16.9005L17.9917 1.06873L4.14075 14.925Z" fill="#A3EBFF"/>
<path d="M3.06525 13.875L16.929 0.0090332L1.1085 4.67478C0.850897 4.74804 0.616929 4.88737 0.429802 5.07897C0.242676 5.27056 0.108895 5.50774 0.0417316 5.767C-0.0254317 6.02625 -0.0236431 6.29856 0.04692 6.55691C0.117483 6.81526 0.254368 7.05067 0.443995 7.23978L3.06525 9.85878V13.875Z" fill="#A3EBFF"/>
</g>
<defs>
<clipPath id="clip0_27_48">
<rect width="18" height="18" fill="white"/>
</clipPath>
</defs>
</svg>
